<svg width="32" height="38" viewBox="0 0 32 38" fill="none" xmlns="http://www.w3.org/2000/svg">
<rect x="4" y="4" width="24" height="30" rx="4" fill="#F6F7F9"/>
<path d="M19.7782 14.2929C19.3877 13.9024 18.7545 13.9024 18.364 14.2929L15.536 17.1209L12.708 14.2929C12.3175 13.9024 11.6843 13.9024 11.2938 14.2929C10.9033 14.6834 10.9033 15.3166 11.2938 15.7071L14.1218 18.5351L11.2929 21.364C10.9024 21.7545 10.9024 22.3877 11.2929 22.7782C11.6834 23.1687 12.3166 23.1687 12.7071 22.7782L15.536 19.9493L18.3649 22.7782C18.7554 23.1687 19.3886 23.1687 19.7791 22.7782C20.1696 22.3877 20.1696 21.7545 19.7791 21.364L16.9502 18.5351L19.7782 15.7071C20.1687 15.3166 20.1687 14.6834 19.7782 14.2929Z" fill="#CED1D9"/>
</svg>
