<svg width="52" height="18" viewBox="0 0 52 18" fill="none" xmlns="http://www.w3.org/2000/svg">
<path d="M5.348 13H1.092V3.662H5.25C6.05267 3.662 6.68733 3.88133 7.154 4.32C7.63 4.75867 7.868 5.33267 7.868 6.042C7.868 6.602 7.70933 7.078 7.392 7.47C7.07467 7.85267 6.68733 8.09067 6.23 8.184C6.72467 8.25867 7.14933 8.52 7.504 8.968C7.868 9.416 8.05 9.92 8.05 10.48C8.05 11.236 7.80733 11.8473 7.322 12.314C6.846 12.7713 6.188 13 5.348 13ZM5.054 7.708C5.56733 7.708 5.964 7.568 6.244 7.288C6.524 7.008 6.664 6.64867 6.664 6.21C6.664 5.77133 6.51933 5.412 6.23 5.132C5.95 4.84267 5.558 4.698 5.054 4.698H2.254V7.708H5.054ZM5.11 11.964C5.65133 11.964 6.076 11.8193 6.384 11.53C6.692 11.2407 6.846 10.8487 6.846 10.354C6.846 9.89667 6.692 9.514 6.384 9.206C6.08533 8.898 5.66067 8.744 5.11 8.744H2.254V11.964H5.11ZM12.9067 13.168C11.8987 13.168 11.0727 12.8413 10.4287 12.188C9.78469 11.5253 9.46269 10.6667 9.46269 9.612C9.46269 8.62267 9.78002 7.78733 10.4147 7.106C11.0494 6.41533 11.8427 6.07 12.7947 6.07C13.7934 6.07 14.582 6.41533 15.1607 7.106C15.7487 7.78733 16.0427 8.65067 16.0427 9.696V9.962H10.5687C10.6154 10.6247 10.858 11.18 11.2967 11.628C11.7354 12.076 12.3047 12.3 13.0047 12.3C13.8447 12.3 14.54 12.0153 15.0907 11.446L15.5947 12.132C14.904 12.8227 14.008 13.168 12.9067 13.168ZM15.0067 9.192C14.9974 8.61333 14.8014 8.09533 14.4187 7.638C14.036 7.17133 13.49 6.938 12.7807 6.938C12.1087 6.938 11.5767 7.16667 11.1847 7.624C10.802 8.08133 10.5967 8.604 10.5687 9.192H15.0067ZM19.8854 13.168C18.7374 13.168 17.8274 12.8133 17.1554 12.104L17.7014 11.348C17.9347 11.6187 18.252 11.8473 18.6534 12.034C19.064 12.2207 19.4887 12.314 19.9274 12.314C20.4314 12.314 20.8234 12.2067 21.1034 11.992C21.3834 11.7773 21.5234 11.4973 21.5234 11.152C21.5234 10.8533 21.3787 10.62 21.0894 10.452C20.8 10.2747 20.45 10.144 20.0394 10.06C19.638 9.96667 19.232 9.864 18.8214 9.752C18.4107 9.63067 18.0607 9.43 17.7714 9.15C17.482 8.86067 17.3374 8.48267 17.3374 8.016C17.3374 7.46533 17.5614 7.00333 18.0094 6.63C18.4667 6.25667 19.0827 6.07 19.8574 6.07C20.8747 6.07 21.71 6.39667 22.3634 7.05L21.8734 7.778C21.3974 7.20867 20.7254 6.924 19.8574 6.924C19.4 6.924 19.036 7.02667 18.7654 7.232C18.4947 7.428 18.3594 7.68 18.3594 7.988C18.3594 8.25867 18.504 8.47333 18.7934 8.632C19.0827 8.78133 19.428 8.90267 19.8294 8.996C20.24 9.08 20.6507 9.18267 21.0614 9.304C21.472 9.42533 21.822 9.64 22.1114 9.948C22.4007 10.2467 22.5454 10.6387 22.5454 11.124C22.5454 11.7213 22.312 12.2113 21.8454 12.594C21.3787 12.9767 20.7254 13.168 19.8854 13.168ZM25.9592 13.168C25.4645 13.168 25.0912 13.0327 24.8392 12.762C24.5872 12.4913 24.4612 12.0993 24.4612 11.586V7.162H23.3412V6.238H24.4612V4.39H25.5112V6.238H26.8832V7.162H25.5112V11.362C25.5112 11.6233 25.5672 11.8333 25.6792 11.992C25.8005 12.1507 25.9732 12.23 26.1972 12.23C26.5052 12.23 26.7432 12.1367 26.9112 11.95L27.2192 12.734C26.9112 13.0233 26.4912 13.168 25.9592 13.168Z" fill="#32384A"/>
<path d="M38.667 5H43.501" stroke="#32384A" stroke-linecap="round" stroke-linejoin="round"/>
<path d="M38.667 9H43.3337" stroke="#32384A" stroke-linecap="round" stroke-linejoin="round"/>
<path d="M38.667 13H43.3337" stroke="#32384A" stroke-linecap="round" stroke-linejoin="round"/>
<path d="M46 11L48 13L50 11" stroke="#32384A" stroke-linecap="round" stroke-linejoin="round"/>
<path d="M46 7L48 5L50 7" stroke="#32384A" stroke-linecap="round" stroke-linejoin="round"/>
<path d="M48 5V13" stroke="#32384A" stroke-linecap="round" stroke-linejoin="round"/>
</svg>
