<svg width="15" height="16" viewBox="0 0 15 16" fill="none" xmlns="http://www.w3.org/2000/svg">
<path fill-rule="evenodd" clip-rule="evenodd" d="M7.5 14.5C3.91015 14.5 1 11.5899 1 8C1 4.41015 3.91015 1.5 7.5 1.5C11.0899 1.5 14 4.41015 14 8C14 11.5899 11.0899 14.5 7.5 14.5ZM7.49969 13.3179C10.4368 13.3179 12.8179 10.9368 12.8179 7.99969C12.8179 5.06254 10.4368 2.68151 7.49969 2.68151C4.56254 2.68151 2.18151 5.06254 2.18151 7.99969C2.18151 10.9368 4.56254 13.3179 7.49969 13.3179ZM7.49846 5.04538C7.82481 5.04538 8.08937 5.30994 8.08937 5.63629V7.75516L9.68902 9.35481C9.91979 9.58558 9.91979 9.95972 9.68902 10.1905C9.45826 10.4213 9.08412 10.4213 8.85335 10.1905L7.08063 8.41776C6.96981 8.30694 6.90755 8.15664 6.90755 7.99992V5.63629C6.90755 5.30994 7.17211 5.04538 7.49846 5.04538Z" fill="#6A7186"/>
</svg>
