<svg width="14" height="14" viewBox="0 0 14 14" fill="none" xmlns="http://www.w3.org/2000/svg">
<g clip-path="url(#clip0)">
<path d="M8.48069 2.84482V0.39264C8.48069 0.160752 8.2926 -0.0273438 8.0606 -0.0273438C7.82872 -0.0273438 7.64062 0.160752 7.64062 0.39264V2.84482H8.48069Z" fill="#9399AB"/>
<path d="M10.2893 0.39264C10.2893 0.160752 10.1012 -0.0273438 9.86921 -0.0273438C9.63732 -0.0273438 9.44922 0.160752 9.44922 0.39264V2.84482H10.2893V0.39264Z" fill="#9399AB"/>
<path d="M12.1018 2.84482V0.39264C12.1018 0.160752 11.9137 -0.0273438 11.6818 -0.0273438C11.4498 -0.0273438 11.2617 0.160752 11.2617 0.39264V2.84482H12.1018Z" fill="#9399AB"/>
<path d="M7.64062 3.68457V3.85921C7.64062 4.62996 8.04373 5.34528 8.68717 5.74989V12.7872C8.68717 13.4408 9.21888 13.9724 9.87235 13.9724C10.5259 13.9724 11.0576 13.4408 11.0576 12.7872V5.74978C11.701 5.34517 12.104 4.62986 12.104 3.85921V3.68457H7.64062Z" fill="#9399AB"/>
<path d="M2.65311 6.93164C2.43372 7.24706 2.30469 7.62976 2.30469 8.04216V12.7691C2.30469 13.4208 2.80649 13.9492 3.44714 13.9718C3.46167 13.9723 3.47619 13.9727 3.49072 13.9727C3.7993 13.9727 4.08993 13.8555 4.31296 13.6403C4.54655 13.4149 4.67515 13.112 4.67515 12.7874V6.93164H2.65311Z" fill="#9399AB"/>
<path d="M4.676 6.09169V0.39264C4.676 0.160752 4.48801 -0.0273438 4.25602 -0.0273438C2.95815 -0.0273438 1.94141 1.50103 1.94141 3.45216C1.94141 4.51835 2.24507 5.4584 2.73224 6.09169H4.676Z" fill="#9399AB"/>
</g>
<defs>
<clipPath id="clip0">
<rect width="14" height="14" fill="white"/>
</clipPath>
</defs>
</svg>
