<svg width="16" height="16" viewBox="0 0 16 16" fill="none" xmlns="http://www.w3.org/2000/svg">
<rect width="16" height="16" fill="#F6F7F9"/>
<path d="M11.5677 1.2502L10.0677 2.7502H2.75V13.2502H13.25V5.93245L14.75 4.43245V14.0002C14.75 14.1991 14.671 14.3899 14.5303 14.5305C14.3897 14.6712 14.1989 14.7502 14 14.7502H2C1.80109 14.7502 1.61032 14.6712 1.46967 14.5305C1.32902 14.3899 1.25 14.1991 1.25 14.0002V2.0002C1.25 1.80128 1.32902 1.61052 1.46967 1.46987C1.61032 1.32921 1.80109 1.2502 2 1.2502H11.5677ZM14.3638 0.575195L15.425 1.6372L8.531 8.5312L7.472 8.53345L7.4705 7.4707L14.3638 0.575195Z" fill="#6A7186"/>
</svg>
