<svg width="55" height="18" viewBox="0 0 55 18" fill="none" xmlns="http://www.w3.org/2000/svg">
<g clip-path="url(#clip0)">
<path d="M2.254 13H1.092V3.662H7.21V4.698H2.254V7.708H7.112V8.744H2.254V13ZM9.26527 5.272C9.0786 5.272 8.91527 5.20667 8.77527 5.076C8.63527 4.936 8.56527 4.768 8.56527 4.572C8.56527 4.376 8.63527 4.208 8.77527 4.068C8.91527 3.928 9.0786 3.858 9.26527 3.858C9.46127 3.858 9.62927 3.928 9.76927 4.068C9.90927 4.208 9.97927 4.376 9.97927 4.572C9.97927 4.768 9.90927 4.936 9.76927 5.076C9.62927 5.20667 9.46127 5.272 9.26527 5.272ZM9.79727 13H8.74727V6.238H9.79727V13ZM12.9418 13H11.8918V3.662H12.9418V13ZM16.7443 13.168C16.2497 13.168 15.8763 13.0327 15.6243 12.762C15.3723 12.4913 15.2463 12.0993 15.2463 11.586V7.162H14.1263V6.238H15.2463V4.39H16.2963V6.238H17.6683V7.162H16.2963V11.362C16.2963 11.6233 16.3523 11.8333 16.4643 11.992C16.5857 12.1507 16.7583 12.23 16.9823 12.23C17.2903 12.23 17.5283 12.1367 17.6963 11.95L18.0043 12.734C17.6963 13.0233 17.2763 13.168 16.7443 13.168ZM22.2036 13.168C21.1956 13.168 20.3696 12.8413 19.7256 12.188C19.0816 11.5253 18.7596 10.6667 18.7596 9.612C18.7596 8.62267 19.0769 7.78733 19.7116 7.106C20.3462 6.41533 21.1396 6.07 22.0916 6.07C23.0902 6.07 23.8789 6.41533 24.4576 7.106C25.0456 7.78733 25.3396 8.65067 25.3396 9.696V9.962H19.8656C19.9122 10.6247 20.1549 11.18 20.5936 11.628C21.0322 12.076 21.6016 12.3 22.3016 12.3C23.1416 12.3 23.8369 12.0153 24.3876 11.446L24.8916 12.132C24.2009 12.8227 23.3049 13.168 22.2036 13.168ZM24.3036 9.192C24.2942 8.61333 24.0982 8.09533 23.7156 7.638C23.3329 7.17133 22.7869 6.938 22.0776 6.938C21.4056 6.938 20.8736 7.16667 20.4816 7.624C20.0989 8.08133 19.8936 8.604 19.8656 9.192H24.3036ZM28.0902 13H27.0402V6.238H28.0902V7.33C28.7156 6.50867 29.4669 6.098 30.3442 6.098V7.176C30.2136 7.148 30.0736 7.134 29.9242 7.134C29.6069 7.134 29.2616 7.246 28.8882 7.47C28.5149 7.694 28.2489 7.94133 28.0902 8.212V13Z" fill="#32384A"/>
<path d="M43.0003 8.99999C43.7367 8.99999 44.3337 8.40304 44.3337 7.66666C44.3337 6.93028 43.7367 6.33333 43.0003 6.33333C42.2639 6.33333 41.667 6.93028 41.667 7.66666C41.667 8.40304 42.2639 8.99999 43.0003 8.99999Z" stroke="#32384A" stroke-linecap="round" stroke-linejoin="round"/>
<path d="M43 3.66667V6.33334" stroke="#32384A" stroke-linecap="round" stroke-linejoin="round"/>
<path d="M43 9V14.3333" stroke="#32384A" stroke-linecap="round" stroke-linejoin="round"/>
<path d="M47.0003 13C47.7367 13 48.3337 12.403 48.3337 11.6667C48.3337 10.9303 47.7367 10.3333 47.0003 10.3333C46.2639 10.3333 45.667 10.9303 45.667 11.6667C45.667 12.403 46.2639 13 47.0003 13Z" stroke="#32384A" stroke-linecap="round" stroke-linejoin="round"/>
<path d="M47 3.66667V10.3333" stroke="#32384A" stroke-linecap="round" stroke-linejoin="round"/>
<path d="M47 13V14.3333" stroke="#32384A" stroke-linecap="round" stroke-linejoin="round"/>
<path d="M51.0003 6.99999C51.7367 6.99999 52.3337 6.40304 52.3337 5.66666C52.3337 4.93028 51.7367 4.33333 51.0003 4.33333C50.2639 4.33333 49.667 4.93028 49.667 5.66666C49.667 6.40304 50.2639 6.99999 51.0003 6.99999Z" stroke="#32384A" stroke-linecap="round" stroke-linejoin="round"/>
<path d="M51 3.66667V4.33334" stroke="#32384A" stroke-linecap="round" stroke-linejoin="round"/>
<path d="M51 7V14.3333" stroke="#32384A" stroke-linecap="round" stroke-linejoin="round"/>
</g>
<defs>
<clipPath id="clip0">
<rect width="55" height="18" fill="white"/>
</clipPath>
</defs>
</svg>
