<svg width="16" height="16" viewBox="0 0 16 16" fill="none" xmlns="http://www.w3.org/2000/svg">
<path d="M4.00033 8.00016C4.73671 8.00016 5.33366 7.40321 5.33366 6.66683C5.33366 5.93045 4.73671 5.3335 4.00033 5.3335C3.26395 5.3335 2.66699 5.93045 2.66699 6.66683C2.66699 7.40321 3.26395 8.00016 4.00033 8.00016Z" stroke="#32384A" stroke-linecap="round" stroke-linejoin="round"/>
<path d="M4 2.6665V5.33317" stroke="#32384A" stroke-linecap="round" stroke-linejoin="round"/>
<path d="M4 8V13.3333" stroke="#32384A" stroke-linecap="round" stroke-linejoin="round"/>
<path d="M8.00033 12.0002C8.73671 12.0002 9.33366 11.4032 9.33366 10.6668C9.33366 9.93045 8.73671 9.3335 8.00033 9.3335C7.26395 9.3335 6.66699 9.93045 6.66699 10.6668C6.66699 11.4032 7.26395 12.0002 8.00033 12.0002Z" stroke="#32384A" stroke-linecap="round" stroke-linejoin="round"/>
<path d="M8 2.6665V9.33317" stroke="#32384A" stroke-linecap="round" stroke-linejoin="round"/>
<path d="M8 12V13.3333" stroke="#32384A" stroke-linecap="round" stroke-linejoin="round"/>
<path d="M12.0003 6.00016C12.7367 6.00016 13.3337 5.40321 13.3337 4.66683C13.3337 3.93045 12.7367 3.3335 12.0003 3.3335C11.2639 3.3335 10.667 3.93045 10.667 4.66683C10.667 5.40321 11.2639 6.00016 12.0003 6.00016Z" stroke="#32384A" stroke-linecap="round" stroke-linejoin="round"/>
<path d="M12 2.6665V3.33317" stroke="#32384A" stroke-linecap="round" stroke-linejoin="round"/>
<path d="M12 6V13.3333" stroke="#32384A" stroke-linecap="round" stroke-linejoin="round"/>
</svg>
