<svg width="14" height="14" viewBox="0 0 14 14" fill="none" xmlns="http://www.w3.org/2000/svg">
<g clip-path="url(#clip0)">
<path d="M13.3342 9.34178L7.54518 5.716V5.44366C7.54518 5.28276 7.62773 5.15309 7.80503 5.03617C7.82691 5.0216 7.85269 5.00596 7.88133 4.98851C8.16255 4.81614 8.74788 4.4576 8.74788 3.64938C8.74788 2.8099 8.05604 2.16572 7.38687 2.02773C6.68228 1.8814 6.04333 2.05297 5.62722 2.50969C5.24786 2.92474 5.14135 3.27053 5.11896 3.8319C5.11713 3.87252 5.11611 3.96 5.11505 4.0454C5.11399 4.16335 5.34677 4.25919 5.63423 4.25919H5.73837C6.02584 4.25919 6.25939 4.16389 6.25993 4.04595C6.26019 3.94857 6.26099 3.85068 6.26176 3.83216C6.27764 3.44498 6.38178 3.21713 6.77703 3.13721C7.02282 3.08775 7.28815 3.1565 7.4436 3.30881C7.51417 3.37755 7.55139 3.49681 7.54098 3.61998C7.53422 3.70201 7.49905 3.85561 7.34414 3.96237L6.84812 4.30009C6.53176 4.50267 6.39713 4.74509 6.39713 5.11039V5.7168L0.666472 9.32903C-0.182908 9.85289 -0.00714467 10.7463 0.0670752 11.0077C0.135049 11.246 0.4441 12.0232 1.56947 12.0232H12.5021C13.2973 12.0232 13.8003 11.5061 13.9469 10.9931C14.0987 10.4567 13.9341 9.69539 13.3342 9.34178ZM12.746 10.6036C12.7187 10.6994 12.6299 10.8028 12.4856 10.8028C12.4854 10.8028 12.4854 10.8028 12.4854 10.8028H1.55567C1.40412 10.8022 1.31872 10.7028 1.29165 10.6179C1.25703 10.5088 1.30181 10.3974 1.40492 10.3242L7.00674 6.81793L12.6395 10.3391C12.7788 10.4263 12.7604 10.5531 12.746 10.6036Z" fill="#9399AB"/>
</g>
<defs>
<clipPath id="clip0">
<rect width="14" height="14" fill="white"/>
</clipPath>
</defs>
</svg>
