<svg width="17" height="16" viewBox="0 0 17 16" fill="none" xmlns="http://www.w3.org/2000/svg">
<path d="M4.49935 14.0002C5.23573 14.0002 5.83268 13.4032 5.83268 12.6668C5.83268 11.9304 5.23573 11.3335 4.49935 11.3335C3.76297 11.3335 3.16602 11.9304 3.16602 12.6668C3.16602 13.4032 3.76297 14.0002 4.49935 14.0002Z" stroke="#7D8499" stroke-width="1.5" stroke-linecap="round" stroke-linejoin="round"/>
<path d="M12.4993 4.66667C13.2357 4.66667 13.8327 4.06971 13.8327 3.33333C13.8327 2.59695 13.2357 2 12.4993 2C11.763 2 11.166 2.59695 11.166 3.33333C11.166 4.06971 11.763 4.66667 12.4993 4.66667Z" stroke="#7D8499" stroke-width="1.5" stroke-linecap="round" stroke-linejoin="round"/>
<path d="M8.50065 12.6668H11.5007C12.1195 12.6668 12.713 12.421 13.1506 11.9834C13.5882 11.5458 13.834 10.9523 13.834 10.3335C13.834 9.71466 13.5882 9.12117 13.1506 8.68358C12.713 8.246 12.1195 8.00016 11.5007 8.00016H6.16732C5.54848 8.00016 4.95499 7.75433 4.5174 7.31675C4.07982 6.87916 3.83398 6.28567 3.83398 5.66683C3.83398 5.04799 4.07982 4.4545 4.5174 4.01691C4.95499 3.57933 5.54848 3.3335 6.16732 3.3335H8.50065" stroke="#7D8499" stroke-width="1.5" stroke-linecap="round" stroke-linejoin="round"/>
</svg>
