<svg width="162" height="32" viewBox="0 0 162 32" fill="none" xmlns="http://www.w3.org/2000/svg">
<rect width="4" height="32" fill="#CED1D9"/>
<path d="M158 0H162V32H158V0Z" fill="#CED1D9"/>
<path d="M15.516 19.144C14.652 19.144 13.944 18.864 13.392 18.304C12.84 17.736 12.564 17 12.564 16.096C12.564 15.248 12.836 14.532 13.38 13.948C13.924 13.356 14.604 13.06 15.42 13.06C16.276 13.06 16.952 13.356 17.448 13.948C17.952 14.532 18.204 15.272 18.204 16.168V16.396H13.512C13.552 16.964 13.76 17.44 14.136 17.824C14.512 18.208 15 18.4 15.6 18.4C16.32 18.4 16.916 18.156 17.388 17.668L17.82 18.256C17.228 18.848 16.46 19.144 15.516 19.144ZM17.316 15.736C17.308 15.24 17.14 14.796 16.812 14.404C16.484 14.004 16.016 13.804 15.408 13.804C14.832 13.804 14.376 14 14.04 14.392C13.712 14.784 13.536 15.232 13.512 15.736H17.316ZM24.4617 19H23.4177L21.6777 16.624L19.9377 19H18.9057L21.1257 16.024L19.0257 13.204H20.0697L21.6777 15.412L23.2857 13.204H24.3297L22.2297 16.024L24.4617 19ZM25.9417 12.376C25.7817 12.376 25.6417 12.32 25.5217 12.208C25.4017 12.088 25.3417 11.944 25.3417 11.776C25.3417 11.608 25.4017 11.464 25.5217 11.344C25.6417 11.224 25.7817 11.164 25.9417 11.164C26.1097 11.164 26.2537 11.224 26.3737 11.344C26.4937 11.464 26.5537 11.608 26.5537 11.776C26.5537 11.944 26.4937 12.088 26.3737 12.208C26.2537 12.32 26.1097 12.376 25.9417 12.376ZM26.3977 19H25.4977V13.204H26.3977V19ZM29.657 19.144C29.233 19.144 28.913 19.028 28.697 18.796C28.481 18.564 28.373 18.228 28.373 17.788V13.996H27.413V13.204H28.373V11.62H29.273V13.204H30.449V13.996H29.273V17.596C29.273 17.82 29.321 18 29.417 18.136C29.521 18.272 29.669 18.34 29.861 18.34C30.125 18.34 30.329 18.26 30.473 18.1L30.737 18.772C30.473 19.02 30.113 19.144 29.657 19.144Z" fill="#7D8499"/>
<path d="M134.696 19.144C133.832 19.144 133.124 18.864 132.572 18.304C132.02 17.736 131.744 17 131.744 16.096C131.744 15.248 132.016 14.532 132.56 13.948C133.104 13.356 133.784 13.06 134.6 13.06C135.456 13.06 136.132 13.356 136.628 13.948C137.132 14.532 137.384 15.272 137.384 16.168V16.396H132.692C132.732 16.964 132.94 17.44 133.316 17.824C133.692 18.208 134.18 18.4 134.78 18.4C135.5 18.4 136.096 18.156 136.568 17.668L137 18.256C136.408 18.848 135.64 19.144 134.696 19.144ZM136.496 15.736C136.488 15.24 136.32 14.796 135.992 14.404C135.664 14.004 135.196 13.804 134.588 13.804C134.012 13.804 133.556 14 133.22 14.392C132.892 14.784 132.716 15.232 132.692 15.736H136.496ZM143.641 19H142.597L140.857 16.624L139.117 19H138.085L140.305 16.024L138.205 13.204H139.249L140.857 15.412L142.465 13.204H143.509L141.409 16.024L143.641 19ZM145.121 12.376C144.961 12.376 144.821 12.32 144.701 12.208C144.581 12.088 144.521 11.944 144.521 11.776C144.521 11.608 144.581 11.464 144.701 11.344C144.821 11.224 144.961 11.164 145.121 11.164C145.289 11.164 145.433 11.224 145.553 11.344C145.673 11.464 145.733 11.608 145.733 11.776C145.733 11.944 145.673 12.088 145.553 12.208C145.433 12.32 145.289 12.376 145.121 12.376ZM145.577 19H144.677V13.204H145.577V19ZM148.837 19.144C148.413 19.144 148.093 19.028 147.877 18.796C147.661 18.564 147.553 18.228 147.553 17.788V13.996H146.593V13.204H147.553V11.62H148.453V13.204H149.629V13.996H148.453V17.596C148.453 17.82 148.501 18 148.597 18.136C148.701 18.272 148.849 18.34 149.041 18.34C149.305 18.34 149.509 18.26 149.653 18.1L149.917 18.772C149.653 19.02 149.293 19.144 148.837 19.144Z" fill="#7D8499"/>
</svg>
