<svg width="16" height="16" viewBox="0 0 16 16" fill="none" xmlns="http://www.w3.org/2000/svg">
<path d="M4 3.8379C4 3.37514 4.37514 3 4.8379 3L11.1628 3.00001C11.6256 3.00001 12.0007 3.37515 12.0007 3.83791C12.0007 4.30067 11.6256 4.67581 11.1628 4.67581L4.8379 4.6758C4.37514 4.6758 4 4.30066 4 3.8379ZM9.00075 11.4962C9.00075 12.0485 8.54888 12.4962 7.9966 12.4962C7.44431 12.4962 6.99245 12.0485 6.99245 11.4962V7.28262L4.8379 7.2826C4.37514 7.2826 4 6.90746 4 6.4447C4 5.98194 4.37514 5.6068 4.8379 5.6068L11.1628 5.60681C11.6256 5.60681 12.0007 5.98196 12.0007 6.44471C12.0007 6.90747 11.6256 7.28262 11.1628 7.28262H9.00075V11.4962Z" fill="#AEB3C1"/>
</svg>
