<svg width="14" height="14" viewBox="0 0 14 14" fill="none" xmlns="http://www.w3.org/2000/svg">
<path d="M2.62557 5.30191C1.50308 5.30191 0.589844 4.38867 0.589844 3.26619C0.589844 2.14371 1.50308 1.23047 2.62557 1.23047C3.74805 1.23047 4.66129 2.14371 4.66129 3.26619C4.66129 4.38867 3.74805 5.30191 2.62557 5.30191Z" fill="#9399AB"/>
<path d="M2.62589 12.7628C2.45467 12.7628 2.30118 12.6573 2.23987 12.4974L0.0273752 6.72498C-0.0213309 6.59787 -0.00434782 6.45496 0.0727701 6.3428C0.149888 6.23065 0.277314 6.16357 0.413392 6.16357H4.83827C4.97435 6.16357 5.10178 6.23065 5.17889 6.3428C5.25601 6.45496 5.273 6.59787 5.22429 6.72498L3.0119 12.4974C2.95059 12.6573 2.7971 12.7628 2.62589 12.7628Z" fill="#9399AB"/>
<path d="M11.3756 5.30191C10.2531 5.30191 9.33984 4.38867 9.33984 3.26619C9.33984 2.14371 10.2531 1.23047 11.3756 1.23047C12.498 1.23047 13.4113 2.14371 13.4113 3.26619C13.4113 4.38867 12.498 5.30191 11.3756 5.30191Z" fill="#9399AB"/>
<path d="M13.5844 12.7628H9.15948C9.02341 12.7628 8.89598 12.6958 8.81886 12.5837C8.74175 12.4715 8.72476 12.3286 8.77347 12.2015L10.9859 6.429C11.0472 6.2691 11.2006 6.16357 11.3719 6.16357C11.5432 6.16357 11.6967 6.2691 11.7579 6.429L13.9704 12.2015C14.0191 12.3286 14.0021 12.4715 13.925 12.5837C13.8479 12.6958 13.7204 12.7628 13.5844 12.7628Z" fill="#9399AB"/>
<path d="M6.99929 12.7627C6.77104 12.7627 6.58594 12.5776 6.58594 12.3493V1.64383C6.58594 1.41557 6.77104 1.23047 6.99929 1.23047C7.22755 1.23047 7.41265 1.41557 7.41265 1.64383V12.3493C7.41265 12.5776 7.22765 12.7627 6.99929 12.7627Z" fill="#9399AB"/>
</svg>
