<svg width="52" height="52" viewBox="0 0 52 52" fill="none" xmlns="http://www.w3.org/2000/svg">
<circle cx="26" cy="26" r="26" fill="#FCF4E3"/>
<path d="M25.9993 20.0909C27.3047 20.0909 28.3629 19.0327 28.3629 17.7273C28.3629 16.4219 27.3047 15.3636 25.9993 15.3636C24.6939 15.3636 23.6357 16.4219 23.6357 17.7273C23.6357 19.0327 24.6939 20.0909 25.9993 20.0909Z" fill="#C29B70"/>
<path d="M27.1811 22.4546C27.1811 21.8019 26.652 21.2727 25.9993 21.2727C25.3466 21.2727 24.8175 21.8019 24.8175 22.4546V30.7273C24.8175 31.38 25.3466 31.9091 25.9993 31.9091H30.5871L32.6241 35.9831C32.916 36.5669 33.6258 36.8035 34.2096 36.5116C34.7934 36.2197 35.0301 35.5098 34.7382 34.926L32.3745 30.1988C32.1743 29.7984 31.7651 29.5455 31.3175 29.5455H27.1811V27.7727H31.3175C31.9702 27.7727 32.4993 27.2436 32.4993 26.5909C32.4993 25.9382 31.9702 25.4091 31.3175 25.4091H27.1811V22.4546Z" fill="#C29B70"/>
<path d="M21.9294 26.6958C22.4718 26.3327 22.6172 25.5987 22.2541 25.0563C21.891 24.5139 21.157 24.3685 20.6146 24.7316C18.8756 25.8956 17.7266 27.8816 17.7266 30.1363C17.7266 33.7262 20.6367 36.6363 24.2266 36.6363C25.5611 36.6363 26.805 36.2329 27.8385 35.5411C28.3809 35.178 28.5263 34.444 28.1632 33.9016C27.8001 33.3592 27.0661 33.2138 26.5237 33.5769C25.8671 34.0164 25.0786 34.2727 24.2266 34.2727C21.9421 34.2727 20.0902 32.4208 20.0902 30.1363C20.0902 28.7033 20.8179 27.4398 21.9294 26.6958Z" fill="#C29B70"/>
</svg>