<svg width="40" height="40" viewBox="0 0 40 40" fill="none" xmlns="http://www.w3.org/2000/svg">
<circle cx="20" cy="20" r="20" fill="#FCF5E3"/>
<path fill-rule="evenodd" clip-rule="evenodd" d="M22.7287 11.8182C22.7287 12.3203 22.3217 12.7273 21.8196 12.7273V14.5455H23.6378C24.6419 14.5455 25.456 15.3595 25.456 16.3637V25.4546C25.456 26.4587 24.6419 27.2728 23.6378 27.2728C23.6378 27.7748 23.2308 28.1818 22.7287 28.1818C22.2266 28.1818 21.8196 27.7748 21.8196 27.2728H18.1832C18.1832 27.7748 17.7762 28.1818 17.2741 28.1818C16.7721 28.1818 16.3651 27.7748 16.3651 27.2728C15.3609 27.2728 14.5469 26.4587 14.5469 25.4546V16.3637C14.5469 15.3595 15.3609 14.5455 16.3651 14.5455H18.1832V12.7273C17.6812 12.7273 17.2741 12.3203 17.2741 11.8182C17.2741 11.3161 17.6812 10.9091 18.1832 10.9091H21.8196C22.3217 10.9091 22.7287 11.3161 22.7287 11.8182ZM19.0923 14.5455H20.9105V12.7273H19.0923V14.5455ZM17.7287 18.1818C17.9797 18.1818 18.1832 18.3854 18.1832 18.6364V23.1818C18.1832 23.4329 17.9797 23.6364 17.7287 23.6364C17.4777 23.6364 17.2741 23.4329 17.2741 23.1818V18.6364C17.2741 18.3854 17.4777 18.1818 17.7287 18.1818ZM22.2741 18.1818C22.5252 18.1818 22.7287 18.3854 22.7287 18.6364V23.1818C22.7287 23.4329 22.5252 23.6364 22.2741 23.6364C22.0231 23.6364 21.8196 23.4329 21.8196 23.1818V18.6364C21.8196 18.3854 22.0231 18.1818 22.2741 18.1818Z" fill="#B9966E"/>
</svg>
