<svg width="52" height="52" viewBox="0 0 52 52" fill="none" xmlns="http://www.w3.org/2000/svg">
<circle cx="26" cy="26" r="26" fill="#FCF4E3"/>
<path d="M20.3857 17.7273H33.6811C34.1513 17.7273 34.6022 17.9141 34.9346 18.2465C35.2671 18.579 35.4538 19.0299 35.4538 19.5V22.1591C35.4538 22.6293 35.2671 23.0802 34.9346 23.4126C34.6022 23.7451 34.1513 23.9318 33.6811 23.9318H31.9084V26.5909C31.9084 27.5312 31.5348 28.433 30.8699 29.0979C30.205 29.7628 29.3032 30.1364 28.3629 30.1364H23.0447C22.1044 30.1364 21.2026 29.7628 20.5377 29.0979C19.8728 28.433 19.4993 27.5312 19.4993 26.5909V18.6137C19.4993 18.3786 19.5927 18.1531 19.7589 17.9869C19.9251 17.8207 20.1506 17.7273 20.3857 17.7273ZM31.9084 19.5V22.1591H33.6811V19.5H31.9084ZM17.7266 32.7955C17.7266 32.306 18.1234 31.9091 18.6129 31.9091H32.7947C33.2843 31.9091 33.6811 32.306 33.6811 32.7955C33.6811 33.285 33.2843 33.6818 32.7947 33.6818H18.6129C18.1234 33.6818 17.7266 33.285 17.7266 32.7955Z" fill="#C29B70"/>
</svg>