<svg width="16" height="16" viewBox="0 0 16 16" fill="none" xmlns="http://www.w3.org/2000/svg">
<path d="M10.1131 5.33109L9.70783 5.33164L11.2859 7.17512L13.3666 7.17226C13.6908 7.17182 14.2312 7.22419 14.9335 7.38256C15.6358 7.54094 16.0003 7.73961 16 7.95205C15.9992 8.53629 15.1206 8.81633 13.3507 8.80548L11.2971 8.80829L9.71378 10.6561L10.1056 10.6688C10.4434 10.6551 10.6187 10.8275 10.6184 11.093C10.6179 11.4117 10.3205 11.5714 9.67195 11.5723L9.00992 11.5865L8.00829 12.8891L8.48118 12.8752C8.79194 12.8615 8.95384 13.0206 8.96695 13.2994C8.9665 13.6181 8.73658 13.791 8.30424 13.7916L7.33148 13.793C6.22155 15.2551 5.51795 15.9996 5.22071 16C5.09914 15.9869 4.95058 15.9473 4.7886 15.8413C4.65365 15.7352 4.55925 15.6158 4.5459 15.4964C4.55958 15.3768 4.72216 15.0579 5.06062 14.5662C5.39912 14.0479 5.90035 13.1045 6.52383 11.6962C7.17433 10.2878 7.47277 9.4376 7.48668 9.15874C7.48683 9.05252 7.40588 8.97296 7.25732 8.93333C7.12229 8.8804 6.50088 8.82814 5.43357 8.81633C4.35273 8.81781 3.42059 8.7527 2.61015 8.62103C2.51548 8.68755 2.28537 8.99326 1.90636 9.49834C1.52735 10.0034 1.25669 10.3225 1.13496 10.4156C0.999741 10.4954 0.742984 10.5356 0.391711 10.5361C0.202564 10.5364 0.0809878 10.5232 0 10.4702C0.000489925 10.125 0.29889 9.30137 0.86814 8.02591C0.302734 6.59266 0.033692 5.7698 0.0339935 5.55735C0.0881109 5.50416 0.223254 5.47742 0.412401 5.47716C0.763675 5.47668 1.02032 5.51616 1.15527 5.6222C1.29026 5.70168 1.533 6.02002 1.89705 6.53736C2.27463 7.04141 2.5174 7.33319 2.61185 7.42601C3.4227 7.26556 4.74689 7.15752 6.63836 7.15493C7.20584 7.1276 7.4762 7.021 7.47646 6.83511C7.49037 6.55625 7.16732 5.70691 6.53431 4.31359C5.8878 2.90701 5.4298 1.95162 5.07924 1.44754C4.74221 0.930163 4.56701 0.62501 4.58069 0.50549C4.56735 0.386006 4.66209 0.266375 4.82437 0.159929C4.97315 0.040223 5.12183 0.000185331 5.25693 1.41002e-07C5.52714 -0.000370238 6.24216 0.728938 7.36144 2.20126L8.32071 2.18667C8.73952 2.19937 8.96895 2.37167 8.9685 2.69034C8.98161 2.96916 8.80577 3.11546 8.50854 3.11587L8.03569 3.10324L9.03362 4.40311L9.6686 4.41552C10.3171 4.41463 10.6141 4.57356 10.6137 4.89223C10.6132 5.18434 10.4509 5.31735 10.1131 5.33109Z" fill="#9399AB"/>
</svg>
