<svg width="52" height="52" viewBox="0 0 52 52" fill="none" xmlns="http://www.w3.org/2000/svg">
<circle cx="26" cy="26" r="26" fill="#FCF4E3"/>
<path d="M23.6357 20.0909C24.9411 20.0909 25.9993 19.0327 25.9993 17.7273C25.9993 16.4219 24.9411 15.3636 23.6357 15.3636C22.3303 15.3636 21.272 16.4219 21.272 17.7273C21.272 19.0327 22.3303 20.0909 23.6357 20.0909Z" fill="#C29B70"/>
<path d="M24.2038 22.2228C24.0758 21.5828 23.4532 21.1677 22.8132 21.2957C22.1732 21.4237 21.7581 22.0463 21.8861 22.6863L22.7852 27.1818H21.6621L20.9565 23.4186C20.8362 22.7771 20.2187 22.3545 19.5772 22.4748C18.9356 22.5951 18.5131 23.2126 18.6334 23.8542L19.5197 28.5815L20.7043 34.5045C20.8148 35.0569 21.2998 35.4546 21.8631 35.4546H28.954C29.2893 35.4546 29.6088 35.3122 29.8329 35.0628C30.0571 34.8135 30.1648 34.4808 30.1292 34.1474L29.6383 29.5455H29.7893L32.6411 34.8337C32.951 35.4082 33.6678 35.6228 34.2423 35.3129C34.8168 35.0031 35.0313 34.2863 34.7215 33.7118L31.5348 27.8027C31.3286 27.4203 30.9291 27.1818 30.4946 27.1818H28.3299L28.3237 27.1818H25.1956L24.2038 22.2228Z" fill="#C29B70"/>
<path d="M20.0702 18.6913C19.9499 18.0498 19.3323 17.6272 18.6908 17.7475C18.0493 17.8678 17.6267 18.4854 17.747 19.1269L17.9686 20.3087C18.0889 20.9502 18.7065 21.3728 19.348 21.2525C19.9895 21.1322 20.412 20.5146 20.2918 19.8731L20.0702 18.6913Z" fill="#C29B70"/>
</svg>