<svg width="12" height="19" viewBox="0 0 12 19" fill="none" xmlns="http://www.w3.org/2000/svg">
<path fill-rule="evenodd" clip-rule="evenodd" d="M9 1C9 1.55228 8.55228 2 8 2V4H10C11.1046 4 12 4.89543 12 6V16C12 17.1046 11.1046 18 10 18C10 18.5523 9.55228 19 9 19C8.44771 19 8 18.5523 8 18H4C4 18.5523 3.55228 19 3 19C2.44772 19 2 18.5523 2 18C0.895431 18 0 17.1046 0 16V6C0 4.89543 0.895431 4 2 4H4V2C3.44772 2 3 1.55228 3 1C3 0.447715 3.44772 0 4 0H8C8.55229 0 9 0.447715 9 1ZM5 4H7V2L5 2V4ZM3.5 8C3.77614 8 4 8.22386 4 8.5V13.5C4 13.7761 3.77614 14 3.5 14C3.22386 14 3 13.7761 3 13.5V8.5C3 8.22386 3.22386 8 3.5 8ZM9 8.5C9 8.22386 8.77614 8 8.5 8C8.22386 8 8 8.22386 8 8.5V13.5C8 13.7761 8.22386 14 8.5 14C8.77614 14 9 13.7761 9 13.5V8.5Z" fill="#DAB267"/>
</svg>
