<svg width="48" height="51" viewBox="0 0 48 51" fill="none" xmlns="http://www.w3.org/2000/svg">
<rect x="4" y="4" width="40" height="43" rx="8" fill="#F6F7F9"/>
<path d="M28.243 21.7572C27.8525 21.3667 27.2193 21.3667 26.8288 21.7572L24.0008 24.5852L21.1729 21.7573C20.7823 21.3667 20.1492 21.3667 19.7586 21.7573C19.3681 22.1478 19.3681 22.7809 19.7586 23.1715L22.5866 25.9994L19.7577 28.8283C19.3672 29.2188 19.3672 29.852 19.7577 30.2425C20.1483 30.6331 20.7814 30.6331 21.172 30.2425L24.0008 27.4137L26.8297 30.2425C27.2202 30.6331 27.8534 30.6331 28.2439 30.2425C28.6344 29.852 28.6344 29.2188 28.2439 28.8283L25.415 25.9994L28.243 23.1715C28.6335 22.7809 28.6335 22.1478 28.243 21.7572Z" fill="#CED1D9"/>
</svg>
