<svg width="32" height="34" viewBox="0 0 32 34" fill="none" xmlns="http://www.w3.org/2000/svg">
<rect x="4" y="4" width="24" height="26" rx="4" fill="#F6F7F9"/>
<path d="M20.243 12.7574C19.8525 12.3668 19.2193 12.3668 18.8288 12.7574L16.0008 15.5853L13.1729 12.7574C12.7823 12.3668 12.1492 12.3668 11.7586 12.7574C11.3681 13.1479 11.3681 13.7811 11.7586 14.1716L14.5866 16.9996L11.7577 19.8284C11.3672 20.219 11.3672 20.8521 11.7577 21.2427C12.1483 21.6332 12.7814 21.6332 13.172 21.2427L16.0008 18.4138L18.8297 21.2427C19.2202 21.6332 19.8534 21.6332 20.2439 21.2427C20.6344 20.8521 20.6344 20.219 20.2439 19.8284L17.415 16.9996L20.243 14.1716C20.6335 13.7811 20.6335 13.1479 20.243 12.7574Z" fill="#CED1D9"/>
</svg>
